<mxfile host="65bd71144e" scale="1" border="20">
    <diagram name="Page-1" id="XsOxLeIZrv7euI11NVRG">
        <mxGraphModel dx="984" dy="486" grid="1" gridSize="10" guides="1" tooltips="1" connect="1" arrows="1" fold="1" page="1" pageScale="1" pageWidth="850" pageHeight="1100" background="#FFFFFF" math="0" shadow="0">
            <root>
                <mxCell id="0"/>
                <mxCell id="1" parent="0"/>
                <mxCell id="NIdN6wE1WWMr_wfMiaKK-4" value="AWS Cloud" style="sketch=0;outlineConnect=0;gradientColor=none;html=1;whiteSpace=wrap;fontSize=12;fontStyle=0;shape=mxgraph.aws4.group;grIcon=mxgraph.aws4.group_aws_cloud;strokeColor=#AAB7B8;fillColor=none;verticalAlign=top;align=left;spacingLeft=30;fontColor=#AAB7B8;dashed=0;" parent="1" vertex="1">
                    <mxGeometry x="88" y="120" width="520" height="360" as="geometry"/>
                </mxCell>
                <mxCell id="q9zDW_t8OwnQqECBWuWp-9" style="edgeStyle=orthogonalEdgeStyle;rounded=0;orthogonalLoop=1;jettySize=auto;html=1;spacingTop=2;" parent="1" source="q9zDW_t8OwnQqECBWuWp-3" edge="1">
                    <mxGeometry relative="1" as="geometry">
                        <mxPoint x="440" y="199" as="targetPoint"/>
                    </mxGeometry>
                </mxCell>
                <mxCell id="q9zDW_t8OwnQqECBWuWp-3" value="startBot" style="sketch=0;points=[[0,0,0],[0.25,0,0],[0.5,0,0],[0.75,0,0],[1,0,0],[0,1,0],[0.25,1,0],[0.5,1,0],[0.75,1,0],[1,1,0],[0,0.25,0],[0,0.5,0],[0,0.75,0],[1,0.25,0],[1,0.5,0],[1,0.75,0]];outlineConnect=0;fontColor=#232F3E;gradientColor=#F78E04;gradientDirection=north;fillColor=#D05C17;strokeColor=#ffffff;dashed=0;verticalLabelPosition=bottom;verticalAlign=top;align=center;html=1;fontSize=12;fontStyle=0;aspect=fixed;shape=mxgraph.aws4.resourceIcon;resIcon=mxgraph.aws4.lambda;labelBackgroundColor=default;spacingTop=2;" parent="1" vertex="1">
                    <mxGeometry x="280" y="160" width="78" height="78" as="geometry"/>
                </mxCell>
                <mxCell id="--Se2shO0ar3GwtoWDNW-2" style="edgeStyle=orthogonalEdgeStyle;rounded=0;orthogonalLoop=1;jettySize=auto;html=1;spacingTop=2;" parent="1" source="q9zDW_t8OwnQqECBWuWp-4" target="--Se2shO0ar3GwtoWDNW-1" edge="1">
                    <mxGeometry relative="1" as="geometry">
                        <Array as="points">
                            <mxPoint x="340" y="290"/>
                            <mxPoint x="479" y="290"/>
                        </Array>
                    </mxGeometry>
                </mxCell>
                <mxCell id="--Se2shO0ar3GwtoWDNW-5" style="edgeStyle=orthogonalEdgeStyle;rounded=0;orthogonalLoop=1;jettySize=auto;html=1;spacingTop=2;" parent="1" source="q9zDW_t8OwnQqECBWuWp-4" edge="1">
                    <mxGeometry relative="1" as="geometry">
                        <mxPoint x="440" y="359" as="targetPoint"/>
                    </mxGeometry>
                </mxCell>
                <mxCell id="--Se2shO0ar3GwtoWDNW-7" style="edgeStyle=orthogonalEdgeStyle;rounded=0;orthogonalLoop=1;jettySize=auto;html=1;spacingTop=2;" parent="1" source="q9zDW_t8OwnQqECBWuWp-4" target="q9zDW_t8OwnQqECBWuWp-5" edge="1">
                    <mxGeometry relative="1" as="geometry">
                        <Array as="points">
                            <mxPoint x="300" y="290"/>
                            <mxPoint x="180" y="290"/>
                        </Array>
                    </mxGeometry>
                </mxCell>
                <mxCell id="q9zDW_t8OwnQqECBWuWp-4" value="chatBot" style="sketch=0;points=[[0,0,0],[0.25,0,0],[0.5,0,0],[0.75,0,0],[1,0,0],[0,1,0],[0.25,1,0],[0.5,1,0],[0.75,1,0],[1,1,0],[0,0.25,0],[0,0.5,0],[0,0.75,0],[1,0.25,0],[1,0.5,0],[1,0.75,0]];outlineConnect=0;fontColor=#232F3E;gradientColor=#F78E04;gradientDirection=north;fillColor=#D05C17;strokeColor=#ffffff;dashed=0;verticalLabelPosition=bottom;verticalAlign=top;align=center;html=1;fontSize=12;fontStyle=0;aspect=fixed;shape=mxgraph.aws4.resourceIcon;resIcon=mxgraph.aws4.lambda;labelBackgroundColor=default;spacingTop=2;" parent="1" vertex="1">
                    <mxGeometry x="280" y="320" width="78" height="78" as="geometry"/>
                </mxCell>
                <mxCell id="q9zDW_t8OwnQqECBWuWp-8" style="edgeStyle=orthogonalEdgeStyle;rounded=0;orthogonalLoop=1;jettySize=auto;html=1;spacingTop=2;" parent="1" source="q9zDW_t8OwnQqECBWuWp-5" target="q9zDW_t8OwnQqECBWuWp-3" edge="1">
                    <mxGeometry relative="1" as="geometry"/>
                </mxCell>
                <mxCell id="--Se2shO0ar3GwtoWDNW-4" style="edgeStyle=orthogonalEdgeStyle;rounded=0;orthogonalLoop=1;jettySize=auto;html=1;spacingTop=2;" parent="1" source="q9zDW_t8OwnQqECBWuWp-5" target="--Se2shO0ar3GwtoWDNW-3" edge="1">
                    <mxGeometry relative="1" as="geometry">
                        <Array as="points">
                            <mxPoint x="140" y="280"/>
                            <mxPoint x="140" y="280"/>
                        </Array>
                    </mxGeometry>
                </mxCell>
                <mxCell id="q9zDW_t8OwnQqECBWuWp-5" value="Amazon Connect" style="sketch=0;points=[[0,0,0],[0.25,0,0],[0.5,0,0],[0.75,0,0],[1,0,0],[0,1,0],[0.25,1,0],[0.5,1,0],[0.75,1,0],[1,1,0],[0,0.25,0],[0,0.5,0],[0,0.75,0],[1,0.25,0],[1,0.5,0],[1,0.75,0]];outlineConnect=0;fontColor=#232F3E;gradientColor=#FF5252;gradientDirection=north;fillColor=#C7131F;strokeColor=#ffffff;dashed=0;verticalLabelPosition=bottom;verticalAlign=top;align=center;html=1;fontSize=12;fontStyle=0;aspect=fixed;shape=mxgraph.aws4.resourceIcon;resIcon=mxgraph.aws4.connect;labelBackgroundColor=default;spacingTop=2;" parent="1" vertex="1">
                    <mxGeometry x="120" y="160" width="78" height="78" as="geometry"/>
                </mxCell>
                <mxCell id="q9zDW_t8OwnQqECBWuWp-7" style="edgeStyle=orthogonalEdgeStyle;rounded=0;orthogonalLoop=1;jettySize=auto;html=1;spacingTop=2;" parent="1" source="q9zDW_t8OwnQqECBWuWp-6" target="q9zDW_t8OwnQqECBWuWp-5" edge="1">
                    <mxGeometry relative="1" as="geometry"/>
                </mxCell>
                <mxCell id="q9zDW_t8OwnQqECBWuWp-6" value="Incoming Chat" style="html=1;verticalLabelPosition=bottom;align=center;labelBackgroundColor=#ffffff;verticalAlign=top;strokeWidth=2;strokeColor=#0080F0;shadow=0;dashed=0;shape=mxgraph.ios7.icons.chat;spacingTop=2;" parent="1" vertex="1">
                    <mxGeometry x="20" y="179" width="50" height="40" as="geometry"/>
                </mxCell>
                <mxCell id="--Se2shO0ar3GwtoWDNW-1" value="chatContacts" style="sketch=0;points=[[0,0,0],[0.25,0,0],[0.5,0,0],[0.75,0,0],[1,0,0],[0,1,0],[0.25,1,0],[0.5,1,0],[0.75,1,0],[1,1,0],[0,0.25,0],[0,0.5,0],[0,0.75,0],[1,0.25,0],[1,0.5,0],[1,0.75,0]];outlineConnect=0;fontColor=#232F3E;fillColor=#C925D1;strokeColor=#ffffff;dashed=0;verticalLabelPosition=bottom;verticalAlign=top;align=center;html=1;fontSize=12;fontStyle=0;aspect=fixed;shape=mxgraph.aws4.resourceIcon;resIcon=mxgraph.aws4.dynamodb;spacingTop=2;labelBackgroundColor=default;" parent="1" vertex="1">
                    <mxGeometry x="440" y="160" width="78" height="78" as="geometry"/>
                </mxCell>
                <mxCell id="--Se2shO0ar3GwtoWDNW-6" style="edgeStyle=orthogonalEdgeStyle;rounded=0;orthogonalLoop=1;jettySize=auto;html=1;spacingTop=2;" parent="1" source="--Se2shO0ar3GwtoWDNW-3" target="q9zDW_t8OwnQqECBWuWp-4" edge="1">
                    <mxGeometry relative="1" as="geometry"/>
                </mxCell>
                <mxCell id="--Se2shO0ar3GwtoWDNW-3" value="Chat Message Events" style="sketch=0;points=[[0,0,0],[0.25,0,0],[0.5,0,0],[0.75,0,0],[1,0,0],[0,1,0],[0.25,1,0],[0.5,1,0],[0.75,1,0],[1,1,0],[0,0.25,0],[0,0.5,0],[0,0.75,0],[1,0.25,0],[1,0.5,0],[1,0.75,0]];outlineConnect=0;fontColor=#232F3E;fillColor=#E7157B;strokeColor=#ffffff;dashed=0;verticalLabelPosition=bottom;verticalAlign=top;align=center;html=1;fontSize=12;fontStyle=0;aspect=fixed;shape=mxgraph.aws4.resourceIcon;resIcon=mxgraph.aws4.sns;spacingTop=2;" parent="1" vertex="1">
                    <mxGeometry x="120" y="320" width="78" height="78" as="geometry"/>
                </mxCell>
                <mxCell id="NIdN6wE1WWMr_wfMiaKK-1" value="" style="shape=image;verticalLabelPosition=bottom;labelBackgroundColor=default;verticalAlign=top;aspect=fixed;imageAspect=0;image=data:image/png,iVBORw0KGgoAAAANSUhEUgAAAHoAAAB4CAYAAAA9kebvAAAAAXNSR0IArs4c6QAAAIRlWElmTU0AKgAAAAgABQESAAMAAAABAAEAAAEaAAUAAAABAAAASgEbAAUAAAABAAAAUgEoAAMAAAABAAIAAIdpAAQAAAABAAAAWgAAAAAAAACQAAAAAQAAAJAAAAABAAOgAQADAAAAAQABAACgAgAEAAAAAQAAAHqgAwAEAAAAAQAAAHgAAAAAzuYkvAAAAAlwSFlzAAAWJQAAFiUBSVIk8AAAEJNJREFUeAHtXQe4FcUVPtQnRXq30dujIyAKCA9BUEyiWCkhxBg1FgRiYvkUMIl+xqCAosZEbGAjYgldOkYU6YKAVJVepEiH98j5F2adO++W3Xtn785d9nzfe7uzOzt75vw77cw55xYgpgLvDj+NY0jBlMDpWwcXKBjMqoW1UiUQAq1KJKDpEOiAAqtWKwRalUhA0yHQAQVWrVYItCqRgKZDoAMKrFqtEGhVIgFNh0AHFFi1WiHQqkQCmg6BDiiwarVCoFWJBDQdAh1QYNVqhUCrEgloOgQ6oMCq1QqBViUS0HQIdECBVatVWL2QSenelzSgYY3aUtGChejjrRto/A/f0vzdWyg0l8mPYkYC3bJsZRrVohO1rVDNrtE9dZoR/nYcPUwfbFkXgm5L5sxJARwyxWasYlYxerJJO+pfoxEVLGCxrlQnMhmCfkYesBnLCKALs2nbvdxah2S3pdJFs2w0j+eeoue+XUIzdnxHN1xYx/qrUqyEfV8+OZdBzwigu1a5hEY070T1S5WTcaNPeEwetHQObTx8wL6Or7Z9xQvppovqUk8GPhHoI/gj2XBov/18UE+MBrpmidL0XPOOdN0FtSLkv+bgj/TA0tk0nVtxPHIC+qZDB6jWpFfjFROIewDauMlYicJF6NGGbWhg3RaUVSiSPbTgF9Yto1On8xICgJn3PJ6B4+/+JbOitvQaJUsnLCdahkalK9Dgei2pc+WLqVJWcdp1/AjN3Pk9DV+7mFYe2BPtEd+vGTVGY7n0dNP2VK1YyaiCKfjes1Gvu7mICufeMsh+xG2ZmCs816wjFSqYXwWRm5dHA5ed+RjtFxhwYkyLjrZcgnwW7NkWsYTSIbNU1tgY+0e1yInJBsDH/Z3HjljLu5gZfbiR/7NMIxNYLv2rVRda2KVXBKDbjh6ivl9MoStmvptGbuK/CkoZzBkEfbZ7K7WcPpayxo+wjkgLQr4iUVq8uO/HMXIQTCMH99dpzlqty6Mul/72zZd0+NTJNHKT+FWdKl1kDylbjvxE3edNsHlcum+XlV7d/Td0YfHzrXw5lS6maTs2Jy44TTl8adF9eCwewZoteU2M5VL2lDfokRWf2QJMkwwcvSa7dHk73wTWvKkfItK4LkjOL675efSlRdcqWcau8/qf9tG9PCtOtFyyH/DppCBZ81bHb3eX23GxSWf0pUXL3I77bo3xIINfedkELRyWgTIhjeuCVh3YK06NOPoOtBFScMDEzF3f03aeJIIwDk/pcAM1L1vJmnThiDSug5AP+U0iX7pukwTglJeTvEYewAqb9y/vYT3SruIFtLhrn6iPIx/ym0SBABqbHYKGrVogTrUf/8P73fcsnkkjWfdeOMry6ZT1Mcwm5DONggE0Gx8I8hJovOOl9ctpzq4faBCrQG+v2Vi8ll7d+DU9yyrQ1ayLN5HCMToJVADmHV99GvEk0qaCDEZDoCPgCm4iBDq42EbUzPgx2u3uUkTtwoQtgbBF26II9kkIdLDxtWsXAm2LItgnxo/RXotfVrZ4/S4/y0870NdWrUF9qzew64zzRT/uoEnbN9nXnJ7AtvvBepc6zR413xBJ2RI1Q0Aupg3ohqXKWxYaXdh8V6aavGX53w7X06ds1TmQdcTfHHS269OAzX9fa301tS5f1S5urU9aKWy1mk6eA12u6Hn0BFuS3FmrSYRB3f4TxyzZlOH7IHwAy6/uS//csIKGrPyc9p69b92U/olWPJRbomwlunDvdurD5kduaSi/KxU6wfrt979fm0oRaXnWM6DhXQFfqCHZl5EAEzWCpaQAE2mYE4mPAMZ1f+Bnel1Sn55Y9UU+01604tdbd6NW5avgUYvgrTF05QJ6Zu0iyjvt3vQP7zkXyBOgMQ4PZwO5uueXjZBhtO4Z1iUv8kYBDOpEt44P41lO31W7KQ3m7nwK215hLI7WivsvnGa0jjlCAD4mtAIN74qXLr3KBkzU61sewwBYrAkXxuWr535A6geCDwXj985jh6nyeT/7VKXaigVffh5hJdqZDQjhDJDHjr6wSJnNu2In8nI9YUsr0NM79iRMrgRhHI7WBYv76hEfwjSelMFI/nGpy5dBxlic6a34RrYPH8k9VlXFUQFmzpiQws9bN2lVmMggv8iuM7UnjSE4sjlxoREVQ148U4efRRkyPbx8Pl3Ott4mbwfK/EY7v5uHI1ipqCAjLzxU3uN7+NB1k1agZeYw9v4YY+aMiVoFNt6PR5h1owyZnl7zVVITLrkMP88xmYR1iiDYh4/ijxp/OBcElx906TrJM6BjMYlxeGX3fvRGm26xsgT2OqxShAkSPDsaTHmdPUPnWH84F94eWH3AiU8naR2j4zGmKkww0epWpTpN9dmbIU9yuIvHv+57A9j1V3YCwDmuCYNDeGrqJM+BLs9LJXmtLJjHRK1c1hllibh2Lh1lO3FRb/ka3HF1kmdAi3AU8uwZjAuFyeOskYo1huusoKllYQyGz5ZM8rgMn2ud5BnQGIedKEziVaaqtHZGPqS385paJ6XTggWeo8JyFJMy2VEPnh7yRA2O9TrJM6BlkBMpTNQKFeJdqQEc8UDdQlxzTX+COe9InqXmJqHuVN+T7jTMgftVz7YmZHAAgPelcMyDO4/w9ECvh+gJOskzoMEkxuFhrEse7TAcBZ65koPNvNAyh7KjLC/OL1KU/tHsSg4/lU33Lp5FczlsRSYR1v+YcI1u2dliG8Dezx+0SoiaII/X6v1k0p4tr4TCBK3PicIE3fK4y66h2Tk3R4C8imOC3Mk20zgKwkeAfMhfReneRR5Tj3AAuPnzibYfl8wnNGO38D3EadFNnrVoVdkRj/F+1RtaISHQYgX9dPIE70p9TqPWLbW66TGbVhKc54fybpfIdxvvcvWoVtMKRvPG5m/Eo8Yf4bLz8db1+XTds9gxzyufLc+AdiPtPceP2uDhuXfYlXbwsrm0Q5p4YUxG8Lh3eO93OHffABkE0PF8phEAhQ4hXXoEI4DGZsbEbRupRolSCcdegN/7i8n0ChsoYCzfdPhgzF2xTAPfS36NABoV7PflVDp48rjj2TQmYs2mvUWlivwcMjIZQakz+2TKEM8cYyOI935YS5v54zONjAF6X4wNkHgCQ3eezHNymbqNA7EsxAeoW+Eh85zMuWez7mSYCcIziD/6dttrXEY88b7mxrRotaowAizOISIPeRyGKlXjQME3NFuD2dwJfOfwhsRjbDhhkj2aZ0C/wBH0ktVnCyPAzUcOWutKIcxUjyUZDHVM1gkGdqCw/AM9zlEY5vNWJMyDTCCtQG/kkMjCyiSeNWesiqumvLD2HM9mNzpCRdx6cT1LqxYrzmgsntxc/wtrATuwZg8tGnVBF45rvTiuWvMyFa2J5iq2jxu7eTW9snGFZ2vmaDxb4bB0ReBP1jgQjIlWrJryDuL1NLRJyRL2wbEM68iR/6KR7k2NyucVp6Vd+8aMFS54WMY7Vz3mf0TQhnlNCPqqdTKGIOmw5rxu3oeEjQxBwppz2pU9CYKXCV/+n+u3oiUc4UcGGUaALTjWZrIgo5t+pmkHWsZOATLIXgsWAV9hvJiImnHIqontf5W2mKFagRaVgwKkEYd7RHxt4ZGBe8IbA+M3DBLQihd0vo2e4tDNwusCprypGgGim8ZO1+D6l9qmO4gYNHzNIqo/+TXBpmfH2pIl7IncXHpgyWwqN2G09YdzXAMB7N/XbOIZH3LBWsdouWBhzfkW66BlCxPZG6MYz6oFwHg2VVPeWN00ogghbFS6rEdlJ8I/LZ9n6euFbKC7ByEWKqgPOxmOXq9/E8MqXPrnSYuWyrd8qLDB0ZSVCPDUEARvDAFyqq04Xjfda8Ekypk9Pm0go36NpS3WN6NstsjXspWhTMhH99GzFq0yKntjjOSvWczOV+zfTbcxGMm2tmizaXTT2B6FkUKidbhb40B4TnabOyHiR1vUuroxinDvLaa+zVna8xatsoHx+y1eXgj6cMv6pEBGNz2r0028hLnWjqONMtFNN532Jj3IXWYikAUPbo612Xr1Zp4DxCMsoQT9mrdgVZKvOXUTVstwm05bi3bLWKz8QukBnbKwkUZezKb/yEuxd9PgwprF0fjjEdbJbc76bf+dZ/4g0V0DZHEN15E3HZRRQKfaTUcTqNN1NDRqTjdAoAy5vWYja1ZdtFAha+IlJl8yD1hLI286KCOANmU27RQQGBVAGYJ1MpZQ0UgoTLyyKFHfaTTQJnTTqsCcpjGUtJnxtrVOxhJKzK79UoEaDTS6Syg9BLmZTYtn/DyitWKNnI51cqJ6pn3WnYgh+f5TqxfS3rP2YF7PpuX3BvHc6BYNl537zrrOpmM2HUSARZ2MBhpM+g0wfMh+yzNoYXUKnnAO16AxG1c6slnHM36T8UD7KSBsOU5sfz21LFc5gg3sxr3MsVru4Aj8PeZ/aP1EYUQGAxNGj9F+ygsteTL/8o0KsswT7iEP8ppO5nPoQoL4rUvsQeN3JFOlu2o3sX7uCOXE22rETyEhr+kUGKB/x92o2IN+uEHrlOWOn1UUJLYa97PdOf6w1YhrguS84pppR9+B7s0Tm65VIuODuhESjBfm5dxCr7DvcVne+gQ91KAVxyVLLWKA7JQu9NQyX/I1Oa+cx6RzX4DewEaEgrAbNJVNjD5q90uCzZlTwsbCXxtfYZkKwddYELYRr2P1I0x6UiE34SbdbEumwlMqz/oC9NjvVtMANqk5cOK4zfsvLqhFqzhKwpNN2uX73Uc709mTq9jKEhEVHmnYhm2uzozHJzniHn6OuPHUN2mGhmgBJm41qnJwk/YFaDD4PI9zdSePsX4YTLQeWJw8xOPrWrb36i2NkaJCmGyNvaw7Te94I8m/WIuwTXCDeezr/9FxTSEW5e1DbCvCZbcM+3nhD+d+bDUKOSRz1GrumwwDeKYFz1yfZ4PBthWqRRSxYM82SzO2hLfzsO0H4YpxGBnhd4VJ0ausuHBDslVJrG1KxOr88qpeMXefxPuwC4XNi3TtQon3ujnC3NcIhQmAvIJDP6IVP80WocLIHsAv7NKb1vG4W48nXTKN4w37Qcvm0G6XvtHWly0XFOPcxK3GGKw6umwE0ILTcTx2f8SRAB7lsXcgW5CgK4fdtwwyJnJ3L5rhahwGuO3Zg+Im9vroKf3Gs3hvrKNpW42x+HRy3SigwTD8lx5Z8Rn9ewP/qCdHwMUkTSa0NICfiFRw4eWoElyIEpFJW42JeI1335KYLpeceC9K9h7W2CM4Jld9pev+ZOsGy0EA3iGCnICLvDuOHqYPtqyzogjLSz1RTtCOGKONBxpChy75PiuGd1sqXfTnCAewB0dcE9iLI04XuuVoLRdlAFzE9HqfA8XM52gJ6TKzxbv9powBWggKyyuss/vXaOSo+z6XwRUyw9GYWbfMVLxzzLDxO80vr1/B4ao65VuO4VnRLSOK/bnWcuPJzrjJWDxmxb3F+3bayzGoQbHmhSNACK6QUP5jRgItqoHlGP5CSiwB31SgiVkLc+iUQAi0TmkaXFYItMHg6GQtBFqnNA0uKwTaYHB0shYCrVOaBpcVAm0wODpZC4HWKU2DywqBNhgcnayFQOuUpsFlhUAbDI5O1kKgdUrT4LJCoA0GRydrIdA6pWlwWSHQBoOjk7UQaJ3SNLisEGiDwdHJ2v8BpSjY9PomFG4AAAAASUVORK5CYII=;" parent="1" vertex="1">
                    <mxGeometry x="440" y="320" width="81.33" height="80" as="geometry"/>
                </mxCell>
                <mxCell id="NIdN6wE1WWMr_wfMiaKK-3" value="Amazon Bedrock&lt;br&gt;(Anthropic Claude 2)" style="text;html=1;align=center;verticalAlign=middle;resizable=0;points=[];autosize=1;strokeColor=none;fillColor=none;" parent="1" vertex="1">
                    <mxGeometry x="417" y="395" width="130" height="40" as="geometry"/>
                </mxCell>
                <mxCell id="2" value="A" style="text;html=1;strokeColor=#d6b656;fillColor=#fff2cc;align=center;verticalAlign=middle;whiteSpace=wrap;overflow=hidden;" vertex="1" parent="1">
                    <mxGeometry x="60" y="160" width="20" height="20" as="geometry"/>
                </mxCell>
                <mxCell id="3" value="B" style="text;html=1;strokeColor=#d6b656;fillColor=#fff2cc;align=center;verticalAlign=middle;whiteSpace=wrap;overflow=hidden;" vertex="1" parent="1">
                    <mxGeometry x="178" y="160" width="20" height="20" as="geometry"/>
                </mxCell>
                <mxCell id="4" value="C" style="text;html=1;strokeColor=#d6b656;fillColor=#fff2cc;align=center;verticalAlign=middle;whiteSpace=wrap;overflow=hidden;" vertex="1" parent="1">
                    <mxGeometry x="338" y="160" width="20" height="20" as="geometry"/>
                </mxCell>
                <mxCell id="5" value="D" style="text;html=1;strokeColor=#d6b656;fillColor=#fff2cc;align=center;verticalAlign=middle;whiteSpace=wrap;overflow=hidden;" vertex="1" parent="1">
                    <mxGeometry x="498" y="160" width="20" height="20" as="geometry"/>
                </mxCell>
                <mxCell id="6" value="E" style="text;html=1;strokeColor=#d6b656;fillColor=#fff2cc;align=center;verticalAlign=middle;whiteSpace=wrap;overflow=hidden;" vertex="1" parent="1">
                    <mxGeometry x="178" y="320" width="20" height="20" as="geometry"/>
                </mxCell>
                <mxCell id="7" value="G" style="text;html=1;strokeColor=#d6b656;fillColor=#fff2cc;align=center;verticalAlign=middle;whiteSpace=wrap;overflow=hidden;" vertex="1" parent="1">
                    <mxGeometry x="501.33000000000004" y="320" width="20" height="20" as="geometry"/>
                </mxCell>
                <mxCell id="8" value="F" style="text;html=1;strokeColor=#d6b656;fillColor=#fff2cc;align=center;verticalAlign=middle;whiteSpace=wrap;overflow=hidden;" vertex="1" parent="1">
                    <mxGeometry x="338" y="320" width="20" height="20" as="geometry"/>
                </mxCell>
            </root>
        </mxGraphModel>
    </diagram>
</mxfile>